#Comment line ignore any data following # character 
#Hierarchical Translation and Rotation (.htr) file 
[Header]	
#Header keywords are followed by a single value 
FileType HTR		#Single word string
DataType HTRS		#Translation followed by rotation and scale data
FileVersion 1		#integer
NumSegments 84		#integer
NumFrames 2		#integer
DataFrameRate 30		#integer, data frame rate in this file
EulerRotationOrder ZYX
CalibrationUnits mm
RotationUnits Degrees
GlobalAxisofGravity Y
BoneLengthAxis Y
ScaleFactor 1.00
[SegmentNames&Hierarchy]
#CHILD	PARENT
MASTER GLOBAL
root MASTER
chest root
L_mid_tent01 root
R_mid_tent01 root
spine01 root
Bip01_Neck chest
L_humerus chest
R_humerus chest
weapon_bone chest
Bip01_Head Bip01_Neck
eye_left_bone Bip01_Head
eye_right_bone Bip01_Head
L_forearm L_humerus
L_front_hand L_forearm
L_weapon_bone L_forearm
L_front_hand01_01 L_front_hand
L_front_hand02_01 L_front_hand
L_front_hand03_01 L_front_hand
L_front_hand01_02 L_front_hand01_01
L_front_hand02_02 L_front_hand02_01
L_front_hand03_02 L_front_hand03_01
R_forearm R_humerus
R_front_hand R_forearm
R_weapon_bone R_forearm
R_front_hand01_01 R_front_hand
R_front_hand02_01 R_front_hand
R_front_hand03_01 R_front_hand
R_front_hand01_02 R_front_hand01_01
R_front_hand02_02 R_front_hand02_01
R_front_hand03_02 R_front_hand03_01
null_rope01_connect L_mid_tent01
Rope1_Seg01 null_rope01_connect
Rope1_Seg02 Rope1_Seg01
Rope1_Seg03 Rope1_Seg02
Rope1_Seg04 Rope1_Seg03
Rope1_Seg05 Rope1_Seg04
Rope1_Seg06 Rope1_Seg05
Rope1_Seg07 Rope1_Seg06
Rope1_Seg09 Rope1_Seg07
L_mid_hand01 Rope1_Seg09
L_mid_hand02 Rope1_Seg09
L_mid_hand03 Rope1_Seg09
null_rope02_connect R_mid_tent01
Rope2_Seg01 null_rope02_connect
Rope2_Seg02 Rope2_Seg01
Rope2_Seg03 Rope2_Seg02
Rope2_Seg04 Rope2_Seg03
Rope2_Seg05 Rope2_Seg04
Rope2_Seg06 Rope2_Seg05
Rope2_Seg07 Rope2_Seg06
Rope2_Seg09 Rope2_Seg07
R_mid_hand01 Rope2_Seg09
R_mid_hand02 Rope2_Seg09
R_mid_hand03 Rope2_Seg09
spine02 spine01
spine03 spine02
pelvis spine03
null_rope03_connect pelvis
null_rope04_connect pelvis
Rope3_Seg01 null_rope03_connect
Rope3_Seg02 Rope3_Seg01
Rope3_Seg03 Rope3_Seg02
Rope3_Seg04 Rope3_Seg03
Rope3_Seg05 Rope3_Seg04
Rope3_Seg06 Rope3_Seg05
Rope3_Seg07 Rope3_Seg06
Rope3_Seg08 Rope3_Seg07
Rope3_Seg09 Rope3_Seg08
R_rear_hand01 Rope3_Seg09
R_rear_hand02 Rope3_Seg09
R_rear_hand03 Rope3_Seg09
Rope4_Seg01 null_rope04_connect
Rope4_Seg02 Rope4_Seg01
Rope4_Seg03 Rope4_Seg02
Rope4_Seg04 Rope4_Seg03
Rope4_Seg05 Rope4_Seg04
Rope4_Seg06 Rope4_Seg05
Rope4_Seg07 Rope4_Seg06
Rope4_Seg08 Rope4_Seg07
Rope4_Seg09 Rope4_Seg08
L_rear_hand01 Rope4_Seg09
L_rear_hand02 Rope4_Seg09
L_rear_hand03 Rope4_Seg09
[BasePosition]
#SegmentName Tx, Ty, Tz, Rx, Ry, Rz, BoneLength
MASTER 0.000000 0.000000 0.000000 -90.000000 0.000000 0.000000 10.000000 
root 0.000000 0.000000 0.000000 0.000000 0.000000 0.000000 10.000000 
chest 0.000000 0.000000 0.000000 0.000000 0.000000 0.000000 10.000000 
L_mid_tent01 0.000000 0.000000 0.000000 0.000000 0.000000 0.000000 10.000000 
R_mid_tent01 0.000000 0.000000 0.000000 0.000000 0.000000 0.000000 10.000000 
spine01 0.000000 0.000000 0.000000 0.000000 0.000000 0.000000 10.000000 
Bip01_Neck 0.000000 0.000000 0.000000 0.000000 0.000000 0.000000 10.000000 
L_humerus 0.000000 0.000000 0.000000 0.000000 0.000000 0.000000 10.000000 
R_humerus 0.000000 0.000000 0.000000 0.000000 0.000000 0.000000 10.000000 
weapon_bone 0.000000 0.000000 0.000000 0.000000 0.000000 0.000000 10.000000 
Bip01_Head 0.000000 0.000000 0.000000 0.000000 0.000000 0.000000 10.000000 
eye_left_bone 0.000000 0.000000 0.000000 0.000000 0.000000 0.000000 10.000000 
eye_right_bone 0.000000 0.000000 0.000000 0.000000 0.000000 0.000000 10.000000 
L_forearm 0.000000 0.000000 0.000000 0.000000 0.000000 0.000000 10.000000 
L_front_hand 0.000000 0.000000 0.000000 0.000000 0.000000 0.000000 10.000000 
L_weapon_bone 0.000000 0.000000 0.000000 0.000000 0.000000 0.000000 10.000000 
L_front_hand01_01 0.000000 0.000000 0.000000 0.000000 0.000000 0.000000 10.000000 
L_front_hand02_01 0.000000 0.000000 0.000000 0.000000 0.000000 0.000000 10.000000 
L_front_hand03_01 0.000000 0.000000 0.000000 0.000000 0.000000 0.000000 10.000000 
L_front_hand01_02 0.000000 0.000000 0.000000 0.000000 0.000000 0.000000 10.000000 
L_front_hand02_02 0.000000 0.000000 0.000000 0.000000 0.000000 0.000000 10.000000 
L_front_hand03_02 0.000000 0.000000 0.000000 0.000000 0.000000 0.000000 10.000000 
R_forearm 0.000000 0.000000 0.000000 0.000000 0.000000 0.000000 10.000000 
R_front_hand 0.000000 0.000000 0.000000 0.000000 0.000000 0.000000 10.000000 
R_weapon_bone 0.000000 0.000000 0.000000 0.000000 0.000000 0.000000 10.000000 
R_front_hand01_01 0.000000 0.000000 0.000000 0.000000 0.000000 0.000000 10.000000 
R_front_hand02_01 0.000000 0.000000 0.000000 0.000000 0.000000 0.000000 10.000000 
R_front_hand03_01 0.000000 0.000000 0.000000 0.000000 0.000000 0.000000 10.000000 
R_front_hand01_02 0.000000 0.000000 0.000000 0.000000 0.000000 0.000000 10.000000 
R_front_hand02_02 0.000000 0.000000 0.000000 0.000000 0.000000 0.000000 10.000000 
R_front_hand03_02 0.000000 0.000000 0.000000 0.000000 0.000000 0.000000 10.000000 
null_rope01_connect 0.000000 0.000000 0.000000 0.000000 0.000000 0.000000 10.000000 
Rope1_Seg01 0.000000 0.000000 0.000000 0.000000 0.000000 0.000000 10.000000 
Rope1_Seg02 0.000000 0.000000 0.000000 0.000000 0.000000 0.000000 10.000000 
Rope1_Seg03 0.000000 0.000000 0.000000 0.000000 0.000000 0.000000 10.000000 
Rope1_Seg04 0.000000 0.000000 0.000000 0.000000 0.000000 0.000000 10.000000 
Rope1_Seg05 0.000000 0.000000 0.000000 0.000000 0.000000 0.000000 10.000000 
Rope1_Seg06 0.000000 0.000000 0.000000 0.000000 0.000000 0.000000 10.000000 
Rope1_Seg07 0.000000 0.000000 0.000000 0.000000 0.000000 0.000000 10.000000 
Rope1_Seg09 0.000000 0.000000 0.000000 0.000000 0.000000 0.000000 10.000000 
L_mid_hand01 0.000000 0.000000 0.000000 0.000000 0.000000 0.000000 10.000000 
L_mid_hand02 0.000000 0.000000 0.000000 0.000000 0.000000 0.000000 10.000000 
L_mid_hand03 0.000000 0.000000 0.000000 0.000000 0.000000 0.000000 10.000000 
null_rope02_connect 0.000000 0.000000 0.000000 0.000000 0.000000 0.000000 10.000000 
Rope2_Seg01 0.000000 0.000000 0.000000 0.000000 0.000000 0.000000 10.000000 
Rope2_Seg02 0.000000 0.000000 0.000000 0.000000 0.000000 0.000000 10.000000 
Rope2_Seg03 0.000000 0.000000 0.000000 0.000000 0.000000 0.000000 10.000000 
Rope2_Seg04 0.000000 0.000000 0.000000 0.000000 0.000000 0.000000 10.000000 
Rope2_Seg05 0.000000 0.000000 0.000000 0.000000 0.000000 0.000000 10.000000 
Rope2_Seg06 0.000000 0.000000 0.000000 0.000000 0.000000 0.000000 10.000000 
Rope2_Seg07 0.000000 0.000000 0.000000 0.000000 0.000000 0.000000 10.000000 
Rope2_Seg09 0.000000 0.000000 0.000000 0.000000 0.000000 0.000000 10.000000 
R_mid_hand01 0.000000 0.000000 0.000000 0.000000 0.000000 0.000000 10.000000 
R_mid_hand02 0.000000 0.000000 0.000000 0.000000 0.000000 0.000000 10.000000 
R_mid_hand03 0.000000 0.000000 0.000000 0.000000 0.000000 0.000000 10.000000 
spine02 0.000000 0.000000 0.000000 0.000000 0.000000 0.000000 10.000000 
spine03 0.000000 0.000000 0.000000 0.000000 0.000000 0.000000 10.000000 
pelvis 0.000000 0.000000 0.000000 0.000000 0.000000 0.000000 10.000000 
null_rope03_connect 0.000000 0.000000 0.000000 0.000000 0.000000 0.000000 10.000000 
null_rope04_connect 0.000000 0.000000 0.000000 0.000000 0.000000 0.000000 10.000000 
Rope3_Seg01 0.000000 0.000000 0.000000 0.000000 0.000000 0.000000 10.000000 
Rope3_Seg02 0.000000 0.000000 0.000000 0.000000 0.000000 0.000000 10.000000 
Rope3_Seg03 0.000000 0.000000 0.000000 0.000000 0.000000 0.000000 10.000000 
Rope3_Seg04 0.000000 0.000000 0.000000 0.000000 0.000000 0.000000 10.000000 
Rope3_Seg05 0.000000 0.000000 0.000000 0.000000 0.000000 0.000000 10.000000 
Rope3_Seg06 0.000000 0.000000 0.000000 0.000000 0.000000 0.000000 10.000000 
Rope3_Seg07 0.000000 0.000000 0.000000 0.000000 0.000000 0.000000 10.000000 
Rope3_Seg08 0.000000 0.000000 0.000000 0.000000 0.000000 0.000000 10.000000 
Rope3_Seg09 0.000000 0.000000 0.000000 0.000000 0.000000 0.000000 10.000000 
R_rear_hand01 0.000000 0.000000 0.000000 0.000000 0.000000 0.000000 10.000000 
R_rear_hand02 0.000000 0.000000 0.000000 0.000000 0.000000 0.000000 10.000000 
R_rear_hand03 0.000000 0.000000 0.000000 0.000000 0.000000 0.000000 10.000000 
Rope4_Seg01 0.000000 0.000000 0.000000 0.000000 0.000000 0.000000 10.000000 
Rope4_Seg02 0.000000 0.000000 0.000000 0.000000 0.000000 0.000000 10.000000 
Rope4_Seg03 0.000000 0.000000 0.000000 0.000000 0.000000 0.000000 10.000000 
Rope4_Seg04 0.000000 0.000000 0.000000 0.000000 0.000000 0.000000 10.000000 
Rope4_Seg05 0.000000 0.000000 0.000000 0.000000 0.000000 0.000000 10.000000 
Rope4_Seg06 0.000000 0.000000 0.000000 0.000000 0.000000 0.000000 10.000000 
Rope4_Seg07 0.000000 0.000000 0.000000 0.000000 0.000000 0.000000 10.000000 
Rope4_Seg08 0.000000 0.000000 0.000000 0.000000 0.000000 0.000000 10.000000 
Rope4_Seg09 0.000000 0.000000 0.000000 0.000000 0.000000 0.000000 10.000000 
L_rear_hand01 0.000000 0.000000 0.000000 0.000000 0.000000 0.000000 10.000000 
L_rear_hand02 0.000000 0.000000 0.000000 0.000000 0.000000 0.000000 10.000000 
L_rear_hand03 0.000000 0.000000 0.000000 0.000000 0.000000 0.000000 10.000000 
#Beginning of Data. Separated by tabs
#Fr	Tx	Ty	Tz	Rx	Ry	Rz	SF
[MASTER]
5 0.000000 0.000000 0.000000 0.001660 0.001660 0.001660 0.000000
6 0.000000 0.000000 0.000000 0.001660 0.001660 0.001660 0.000000
[root]
5 67.615982 -163.467346 1320.483276 -110.489677 -36.570816 -60.453239 1332.279907
6 45.807503 -200.922867 1293.844238 -118.432381 -36.985050 -53.843586 1310.153198
[chest]
5 -84.512650 -34.090519 0.000000 -2.121257 -0.011586 167.687683 91.129311
6 -84.512650 -34.090519 0.000000 -2.113873 -0.012442 167.598160 91.129311
[L_mid_tent01]
5 27.299084 22.179243 -249.918686 -115.060135 70.542336 -28.528023 252.381683
6 27.299086 22.179239 -249.918686 -120.235413 62.022148 -30.544155 252.381683
[R_mid_tent01]
5 23.228794 24.509907 226.238495 -100.723427 -58.421444 -3.080020 228.744751
6 23.228794 24.509907 226.238495 -79.292053 -63.012417 -17.326056 228.744751
[spine01]
5 -0.361383 -0.195265 0.000000 -0.000001 -0.000007 22.052340 0.410763
6 -0.361383 -0.195265 0.000000 -0.000001 -0.000007 22.052340 0.410763
[Bip01_Neck]
5 165.484543 71.581718 0.000119 175.896118 1.177290 24.871183 180.302734
6 165.484543 71.581718 0.000119 175.896118 1.177290 24.871183 180.302734
[L_humerus]
5 -13.983130 -135.272980 -120.471481 -92.203323 41.569592 14.612710 181.680161
6 -13.983130 -135.272980 -120.471481 -99.638626 72.957237 7.446066 181.680161
[R_humerus]
5 -13.983309 -135.273102 125.287651 126.441818 -21.256453 -5.324866 184.909012
6 -13.983309 -135.273102 125.287651 134.440979 -28.831615 -17.493097 184.909012
[weapon_bone]
5 235.964890 -300.705902 0.000000 0.000000 -89.951546 -128.212341 382.234833
6 235.964890 -300.705902 0.000000 0.000000 -89.951546 -128.212341 382.234833
[Bip01_Head]
5 182.627411 50.628277 0.903454 2.325175 0.865879 -57.503670 189.517303
6 179.509583 54.198322 1.165773 2.213046 0.571506 -54.883434 187.516693
[eye_left_bone]
5 29.499422 157.235672 -74.730972 -105.123573 -85.706871 5.628709 176.572906
6 30.175756 157.581863 -74.732430 -105.588112 -85.770988 6.093529 176.995926
[eye_right_bone]
5 39.365997 158.137573 53.993610 74.935242 -85.708916 5.572606 171.675522
6 40.078732 158.544983 53.977661 74.394539 -85.776360 6.112945 172.210358
[L_forearm]
5 322.776093 0.000000 -0.000119 0.000611 0.002266 -59.843933 322.776093
6 322.776093 0.000000 -0.000119 0.000811 0.002212 -49.743263 322.776093
[L_front_hand]
5 241.149185 -0.042021 -3.300071 -177.795639 -0.535806 -67.746185 241.171753
6 241.149185 -0.042021 -3.300071 -177.733139 -0.104630 -78.826683 241.171753
[L_weapon_bone]
5 156.183838 0.000000 0.000000 0.000014 0.000007 0.000001 156.183838
6 156.183838 0.000000 0.000000 0.000014 0.000007 0.000001 156.183838
[L_front_hand01_01]
5 86.095154 20.947098 -0.655860 -0.366594 -0.477154 75.385574 88.609184
6 86.095154 20.947098 -0.655860 -0.366594 -0.477154 75.385574 88.609184
[L_front_hand02_01]
5 86.935165 -11.437475 24.513514 154.399796 -59.883835 -61.369587 91.046425
6 86.935165 -11.437475 24.513514 154.399796 -59.883820 -61.369579 91.046425
[L_front_hand03_01]
5 86.637497 -14.123976 -20.424902 -153.913849 58.118122 -62.702866 90.126129
6 86.637497 -14.123976 -20.424902 -153.913849 58.118122 -62.702866 90.126129
[L_front_hand01_02]
5 71.020905 -0.000179 0.000030 0.000334 -0.002323 -106.379700 71.020905
6 71.020905 -0.000179 0.000030 0.000334 -0.002323 -106.379684 71.020905
[L_front_hand02_02]
5 71.020927 -0.000119 0.000060 0.000334 -0.002323 -106.379700 71.020927
6 71.020927 -0.000119 0.000060 0.000334 -0.002323 -106.379684 71.020927
[L_front_hand03_02]
5 71.020905 -0.000060 0.000060 0.000334 -0.002323 -106.379700 71.020905
6 71.020905 -0.000060 0.000060 0.000334 -0.002323 -106.379684 71.020905
[R_forearm]
5 322.776428 -0.000060 0.000030 0.138257 -0.162354 -41.996445 322.776428
6 322.776428 -0.000060 0.000030 0.137385 -0.163092 -41.382576 322.776428
[R_front_hand]
5 238.847015 -0.006795 2.210259 -2.635298 -10.645461 -26.312506 238.857239
6 238.847015 -0.006795 2.210259 -2.635298 -10.645461 -26.312506 238.857239
[R_weapon_bone]
5 155.664093 0.002503 -0.000030 0.003487 0.001180 -90.988930 155.664078
6 155.664093 0.002503 -0.000030 0.003487 0.001180 -90.988930 155.664078
[R_front_hand01_01]
5 87.624611 14.231146 22.918642 -154.633499 -59.950619 61.746044 91.683487
6 87.624611 14.231146 22.918642 -154.633499 -59.950634 61.746063 91.683487
[R_front_hand02_01]
5 89.356956 14.367283 -19.491137 154.602676 58.302864 63.744389 92.579636
6 89.356956 14.367283 -19.491137 154.602676 58.302864 63.744400 92.579636
[R_front_hand03_01]
5 87.286232 -22.307278 -0.143439 0.162155 -0.423168 -75.767921 90.091743
6 87.286232 -22.307278 -0.143439 0.162155 -0.423168 -75.767921 90.091743
[R_front_hand01_02]
5 71.020905 0.000060 0.000119 0.002323 -0.000334 106.381714 71.020905
6 71.020905 0.000060 0.000119 0.002323 -0.000334 106.381714 71.020905
[R_front_hand02_02]
5 71.020844 -0.000030 -0.000119 0.002323 -0.000334 106.381714 71.020836
6 71.020844 -0.000030 -0.000119 0.002323 -0.000334 106.381714 71.020836
[R_front_hand03_02]
5 71.020905 0.000000 0.000030 0.002323 -0.000334 106.381714 71.020905
6 71.020905 0.000000 0.000030 0.002323 -0.000334 106.381714 71.020905
[null_rope01_connect]
5 328.732483 0.000000 -0.000238 -131.230682 7.242603 -138.655579 328.732483
6 328.732483 0.000000 -0.000238 -125.197205 14.562030 -125.979713 328.732483
[Rope1_Seg01]
5 0.000000 0.000000 0.000000 -12.392228 -18.951321 -48.553616 0.000000
6 0.000000 0.000000 0.000000 -13.259681 -18.736952 -46.343300 0.000000
[Rope1_Seg02]
5 139.999863 -0.000179 0.000000 1.075219 -3.759599 -4.939152 139.999863
6 139.999863 -0.000179 0.000000 1.369018 -4.805418 -7.164159 139.999863
[Rope1_Seg03]
5 139.999924 0.000060 -0.000060 2.063953 -5.981036 -7.635544 139.999924
6 139.999924 0.000060 -0.000060 3.028522 -7.727220 -11.153461 139.999924
[Rope1_Seg04]
5 139.999924 -0.000060 -0.000119 5.092672 -9.962421 -14.571195 139.999924
6 139.999924 -0.000060 -0.000119 7.828456 -9.894185 -21.141140 139.999924
[Rope1_Seg05]
5 139.999832 0.000119 -0.000060 10.634497 -14.223083 -22.256716 139.999832
6 139.999832 0.000119 -0.000060 8.095294 -11.702302 -14.241593 139.999832
[Rope1_Seg06]
5 139.999954 0.000119 -0.000060 3.247759 -17.980696 -0.607463 139.999954
6 139.999954 0.000119 -0.000060 -0.655321 -31.668501 9.533665 139.999954
[Rope1_Seg07]
5 139.999985 0.000060 0.000000 -3.755097 -22.071100 15.419914 139.999985
6 139.999985 0.000060 0.000000 -23.474346 -43.993423 19.794765 139.999985
[Rope1_Seg09]
5 121.602913 0.000119 -0.000089 -89.790619 -1.359656 0.847385 121.602913
6 121.602913 0.000119 -0.000089 -89.790619 -1.359656 0.847385 121.602913
[L_mid_hand01]
5 103.859421 1.038730 8.195221 104.901360 -15.416424 -4.579115 104.187431
6 103.859421 1.038730 8.195221 104.564636 -9.635468 -3.022029 104.187431
[L_mid_hand02]
5 105.572853 -4.139662 -10.864139 -137.605331 15.125652 -15.357132 106.211075
6 105.572853 -4.139662 -10.864139 -136.586548 11.053603 -10.862152 106.211075
[L_mid_hand03]
5 104.641464 17.579376 -3.913581 -18.149921 4.858173 18.388926 106.179977
6 104.641464 17.579376 -3.913581 -18.538750 2.975616 12.703538 106.179977
[null_rope02_connect]
5 328.732849 0.000179 -0.000119 -125.375252 1.964323 -7.955387 328.732849
6 328.732849 0.000179 -0.000119 -130.248306 -3.789259 1.959059 328.732849
[Rope2_Seg01]
5 0.000095 0.000153 0.000008 -46.159267 39.647621 55.546913 0.000180
6 0.000095 0.000153 0.000011 -37.992046 51.429302 68.361504 0.000180
[Rope2_Seg02]
5 139.999741 -0.000060 -0.000119 -0.823914 -16.079685 5.239539 139.999756
6 139.999741 -0.000060 -0.000119 -1.462498 -20.234282 5.102417 139.999756
[Rope2_Seg03]
5 140.000107 0.000030 0.000000 3.533380 15.833292 12.348903 140.000107
6 140.000107 0.000030 0.000000 -0.505862 -8.249578 2.978906 140.000107
[Rope2_Seg04]
5 139.999802 0.000000 -0.000060 0.224501 11.516764 7.879324 139.999802
6 139.999802 0.000000 -0.000060 7.208745 10.032029 11.066143 139.999802
[Rope2_Seg05]
5 139.999985 -0.000060 0.000119 -0.528898 4.157285 2.976949 139.999985
6 139.999985 -0.000060 0.000119 3.221572 6.795830 6.088702 139.999985
[Rope2_Seg06]
5 139.999893 -0.000030 -0.000119 -0.096759 0.278790 0.204200 139.999893
6 139.999893 -0.000030 -0.000119 1.409135 3.721195 3.398165 139.999893
[Rope2_Seg07]
5 139.999893 0.000060 -0.000060 -0.052743 0.001660 0.001659 139.999893
6 139.999893 0.000060 -0.000060 0.731288 2.348293 2.044955 139.999893
[Rope2_Seg09]
5 121.338966 0.000089 -0.000060 33.793236 -1.359788 -0.847141 121.338966
6 121.338966 0.000089 -0.000060 33.793236 -1.359788 -0.847141 121.338966
[R_mid_hand01]
5 104.680779 11.144459 -10.335981 -46.227741 12.210361 14.185655 105.778534
6 104.680779 11.144459 -10.335981 -46.983112 7.642263 9.805663 105.778534
[R_mid_hand02]
5 104.070427 2.443552 8.231699 75.154396 -14.505710 4.333760 104.424065
6 104.070427 2.443552 8.231699 75.479454 -8.429625 2.711335 104.424065
[R_mid_hand03]
5 106.028137 -11.221827 -5.996406 -165.269775 5.820220 -18.388170 106.788818
6 106.028137 -11.221827 -5.996406 -164.740158 4.196070 -12.295324 106.788818
[spine02]
5 129.756927 0.001550 0.000119 1.081628 -3.912060 -23.305698 129.756927
6 129.756927 0.001550 0.000119 1.080937 -3.912251 -23.285469 129.756927
[spine03]
5 78.614067 0.081635 -4.899007 -2.502781 3.467648 -45.735779 78.766602
6 78.614067 0.081635 -4.899007 -2.494478 3.472259 -45.612125 78.766602
[pelvis]
5 169.435242 0.051022 0.000000 -0.061460 -0.179888 14.721030 169.435257
6 169.435242 0.051022 0.000000 -0.061617 -0.179835 14.820778 169.435257
[null_rope03_connect]
5 -1.257226 -2.466202 137.391083 130.866425 -66.800224 31.972557 137.418976
6 -1.257226 -2.466202 137.391083 139.456970 -61.861980 26.461458 137.418976
[null_rope04_connect]
5 -1.259640 -2.480268 -137.844437 130.866425 -66.800224 31.972557 137.872513
6 -1.259640 -2.480268 -137.844437 139.456970 -61.861980 26.461458 137.872513
[Rope3_Seg01]
5 0.000010 0.000034 -0.000136 -132.156677 16.371052 -81.277832 0.000140
6 0.000010 0.000033 -0.000131 -131.443634 11.734943 -80.434265 0.000136
[Rope3_Seg02]
5 139.999924 -0.000119 0.000060 0.043502 -2.149400 -2.230197 139.999924
6 139.999924 -0.000119 0.000060 -0.011398 -2.941799 -1.610923 139.999924
[Rope3_Seg03]
5 139.999924 -0.000119 0.000119 0.104394 -2.934665 -3.043969 139.999924
6 139.999924 -0.000119 0.000119 0.106897 -3.969208 -2.179584 139.999924
[Rope3_Seg04]
5 139.999924 0.000119 0.000000 0.200975 -4.262885 -4.421522 139.999924
6 139.999924 0.000119 0.000000 0.352622 -5.641153 -3.100991 139.999924
[Rope3_Seg05]
5 139.999924 -0.000238 0.000060 1.821714 -10.462717 -10.266175 139.999924
6 139.999924 -0.000238 0.000060 2.763118 -13.333111 -6.929513 139.999924
[Rope3_Seg06]
5 139.999893 -0.000119 -0.000060 6.333902 -16.478077 -16.488968 139.999893
6 139.999893 -0.000119 -0.000060 8.062237 -18.268345 -9.151130 139.999893
[Rope3_Seg07]
5 139.999771 0.000060 -0.000119 -3.062161 10.230498 5.143776 139.999771
6 139.999771 0.000060 -0.000119 -3.916358 9.476609 1.360290 139.999771
[Rope3_Seg08]
5 139.999985 -0.000060 0.000000 -0.876935 11.210898 7.987929 139.999985
6 139.999985 -0.000060 0.000000 -2.766142 12.752298 3.839998 139.999985
[Rope3_Seg09]
5 90.185997 -0.000179 -0.000060 49.760384 -1.360742 -0.847338 90.185997
6 90.185997 -0.000179 -0.000060 34.992714 -1.359648 -0.846936 90.185997
[R_rear_hand01]
5 103.366196 -6.073594 -10.757982 -157.559235 10.513236 -13.241589 104.101845
6 103.366196 -6.073594 -10.757982 -156.704285 8.345716 -8.027033 104.101845
[R_rear_hand02]
5 100.509819 12.039542 -7.992327 -37.862160 8.939234 14.323664 101.543350
6 100.509819 12.039542 -7.992327 -38.418526 5.491729 9.898495 101.543350
[R_rear_hand03]
5 101.539970 5.215704 5.435467 84.149254 -13.552155 5.237628 101.819031
6 101.539970 5.215704 5.435467 84.256439 -8.001242 4.666574 101.819031
[Rope4_Seg01]
5 0.000010 0.000038 -0.000114 47.761345 6.328719 -72.900429 0.000121
6 0.000010 0.000038 -0.000114 40.275185 -5.723356 -68.368263 0.000121
[Rope4_Seg02]
5 139.999985 0.000060 0.000119 0.392102 -7.581452 -4.094508 139.999985
6 139.999985 0.000060 0.000119 3.359736 -12.740168 -12.453881 139.999985
[Rope4_Seg03]
5 139.999924 0.000000 -0.000238 0.675167 -10.924912 -5.893265 139.999924
6 139.999924 0.000000 -0.000238 2.966489 -19.621675 -16.275928 139.999924
[Rope4_Seg04]
5 139.999985 0.000000 0.000119 2.449000 -23.650846 -10.713529 139.999985
6 139.999985 0.000000 0.000119 0.410597 -16.522375 -12.772838 139.999985
[Rope4_Seg05]
5 139.999802 -0.000060 -0.000119 -0.527389 -5.944403 -5.658645 139.999802
6 139.999802 -0.000060 -0.000119 -3.638723 7.975543 -3.193795 139.999802
[Rope4_Seg06]
5 139.999924 0.000000 0.000060 -1.682021 21.204063 1.624273 139.999924
6 139.999924 0.000000 0.000060 -2.502275 20.501602 0.217689 139.999924
[Rope4_Seg07]
5 139.999802 0.000000 0.000000 0.214713 12.175808 0.178757 139.999802
6 139.999802 0.000000 0.000000 -0.303139 13.770998 -1.698865 139.999802
[Rope4_Seg08]
5 139.999924 0.000000 0.000119 -0.912819 7.096925 -0.203606 139.999924
6 139.999924 0.000000 0.000119 -0.862647 8.761721 -1.051538 139.999924
[Rope4_Seg09]
5 90.185791 0.000060 0.000060 -170.898346 2.228076 0.848936 90.185791
6 90.185791 0.000060 0.000060 178.090485 2.228679 0.850088 90.185791
[L_rear_hand01]
5 101.696655 -8.392275 -7.654577 -38.132092 -7.472955 167.573868 102.329041
6 101.696655 -8.392275 -7.654577 -38.600975 -3.653869 172.414749 102.329041
[L_rear_hand02]
5 102.726799 -1.568258 5.773216 84.201385 11.185111 175.009262 102.900848
6 102.726799 -1.568258 5.773216 84.293938 5.067990 175.629288 102.900848
[L_rear_hand03]
5 104.552910 9.721220 -10.420293 -157.170425 -9.596276 -168.991470 105.519653
6 104.552910 9.721220 -10.420293 -156.337662 -7.166387 -174.701874 105.519653
